<svg viewBox="0 0 360 360" xmlns="http://www.w3.org/2000/svg" fill="none"><path d="M66.3 353.93 A 60 60 0 0 0 83.16 258.32" stroke="#EA9A3E" stroke-width="2" stroke-linecap="round" fill="none" opacity="0.18"></path><path d="M88.22 398.87 A 110 110 0 0 0 119.13 223.59" stroke="#EA9A3E" stroke-width="2.2" stroke-linecap="round" fill="none" opacity="0.26"></path><path d="M112.33 448.3 A 165 165 0 0 0 158.69 185.38" stroke="#EA9A3E" stroke-width="2.6" stroke-linecap="round" fill="none" opacity="0.4"></path><path d="M138.63 502.23 A 225 225 0 0 0 201.85 143.7" stroke="#EA9A3E" stroke-width="3" stroke-linecap="round" fill="none" opacity="0.6"></path><path d="M167.13 560.65 A 290 290 0 0 0 248.61 98.55" stroke="#EA9A3E" stroke-width="3.4" stroke-linecap="round" fill="none" opacity="0.85"></path><circle cx="83.16" cy="258.32" r="2.6" fill="#EA9A3E" opacity="0.32999999999999996"></circle><circle cx="119.13" cy="223.59" r="2.9" fill="#EA9A3E" opacity="0.41000000000000003"></circle><circle cx="158.69" cy="185.38" r="3.4" fill="#EA9A3E" opacity="0.55"></circle><circle cx="201.85" cy="143.7" r="3.9" fill="#EA9A3E" opacity="0.75"></circle><circle cx="248.61" cy="98.55" r="4.4" fill="#EA9A3E" opacity="1"></circle><circle cx="40" cy="300" r="11" fill="#FFD9A0"></circle><circle cx="40" cy="300" r="20" fill="#EA9A3E" opacity="0.18"></circle></svg>