<svg viewBox="0 0 360 240" xmlns="http://www.w3.org/2000/svg" fill="none"><line x1="40" y1="60" x2="110" y2="40" stroke="#AAB4C0" stroke-width="0.8" opacity="0.18"></line><line x1="110" y1="40" x2="150" y2="110" stroke="#AAB4C0" stroke-width="0.8" opacity="0.2"></line><line x1="150" y1="110" x2="90" y2="150" stroke="#AAB4C0" stroke-width="0.8" opacity="0.18"></line><line x1="40" y1="60" x2="90" y2="150" stroke="#AAB4C0" stroke-width="0.8" opacity="0.12"></line><line x1="110" y1="40" x2="200" y2="70" stroke="#AAB4C0" stroke-width="0.8" opacity="0.16"></line><line x1="200" y1="70" x2="260" y2="130" stroke="#AAB4C0" stroke-width="0.8" opacity="0.2"></line><line x1="260" y1="130" x2="320" y2="60" stroke="#AAB4C0" stroke-width="0.8" opacity="0.16"></line><line x1="200" y1="70" x2="250" y2="40" stroke="#AAB4C0" stroke-width="0.8" opacity="0.14"></line><line x1="260" y1="130" x2="220" y2="180" stroke="#AAB4C0" stroke-width="0.8" opacity="0.2"></line><line x1="220" y1="180" x2="160" y2="200" stroke="#AAB4C0" stroke-width="0.8" opacity="0.18"></line><line x1="90" y1="150" x2="160" y2="200" stroke="#AAB4C0" stroke-width="0.8" opacity="0.14"></line><line x1="160" y1="200" x2="60" y2="200" stroke="#AAB4C0" stroke-width="0.8" opacity="0.16"></line><line x1="90" y1="150" x2="60" y2="200" stroke="#AAB4C0" stroke-width="0.8" opacity="0.12"></line><line x1="260" y1="130" x2="300" y2="190" stroke="#AAB4C0" stroke-width="0.8" opacity="0.18"></line><line x1="300" y1="190" x2="220" y2="180" stroke="#AAB4C0" stroke-width="0.8" opacity="0.16"></line><line x1="150" y1="110" x2="200" y2="70" stroke="#AAB4C0" stroke-width="0.8" opacity="0.14"></line><circle cx="40" cy="60" r="2" fill="#EA9A3E" opacity="0.6"></circle><circle cx="110" cy="40" r="2" fill="#EA9A3E" opacity="0.6"></circle><circle cx="150" cy="110" r="14" fill="#EA9A3E" opacity="0.16"></circle><circle cx="150" cy="110" r="3.2" fill="#FFD9A0"></circle><circle cx="90" cy="150" r="2" fill="#EA9A3E" opacity="0.6"></circle><circle cx="200" cy="70" r="2" fill="#EA9A3E" opacity="0.6"></circle><circle cx="260" cy="130" r="14" fill="#EA9A3E" opacity="0.16"></circle><circle cx="260" cy="130" r="3.2" fill="#FFD9A0"></circle><circle cx="320" cy="60" r="2" fill="#EA9A3E" opacity="0.6"></circle><circle cx="300" cy="190" r="2" fill="#EA9A3E" opacity="0.6"></circle><circle cx="220" cy="180" r="2" fill="#EA9A3E" opacity="0.6"></circle><circle cx="160" cy="200" r="14" fill="#EA9A3E" opacity="0.16"></circle><circle cx="160" cy="200" r="3.2" fill="#FFD9A0"></circle><circle cx="60" cy="200" r="2" fill="#EA9A3E" opacity="0.6"></circle><circle cx="250" cy="40" r="2" fill="#EA9A3E" opacity="0.6"></circle></svg>